<svg width="96" height="96" viewBox="0 0 96 96" fill="none" xmlns="http://www.w3.org/2000/svg">
<path fill-rule="evenodd" clip-rule="evenodd" d="M8 20C8 24.5215 10.0006 28.5758 13.1648 31.3259C9.87683 37.1351 8 43.8484 8 51C8 73.0914 25.9086 91 48 91C70.0914 91 88 73.0914 88 51C88 43.8484 86.1232 37.1351 82.8352 31.3259C85.9994 28.5758 88 24.5215 88 20C88 11.7157 81.2843 5 73 5C67.3317 5 62.3977 8.14409 59.8469 12.7834C56.1033 11.6243 52.1245 11 48 11C43.8755 11 39.8967 11.6243 36.1531 12.7834C33.6023 8.14409 28.6683 5 23 5C14.7157 5 8 11.7157 8 20Z" fill="#FFF9EC"/>
<path fill-rule="evenodd" clip-rule="evenodd" d="M27.1111 46.0445C27.1111 41.3807 30.8918 37.6 35.5555 37.6C38.6646 37.6 41.3813 39.2802 42.847 41.7822C37.69 43.8323 34.0444 48.8682 34.0444 54.7556C34.0444 62.463 40.2925 68.7111 48 68.7111C55.7074 68.7111 61.9555 62.463 61.9555 54.7556C61.9555 48.8682 58.3099 43.8323 53.153 41.7822C54.6187 39.2802 57.3353 37.6 60.4444 37.6C65.1082 37.6 68.8889 41.3807 68.8889 46.0445H76.8889C76.8889 36.9624 69.5264 29.6 60.4444 29.6C55.4722 29.6 51.0154 31.8068 48 35.2944C44.9846 31.8068 40.5278 29.6 35.5555 29.6C26.4735 29.6 19.1111 36.9624 19.1111 46.0445H27.1111ZM68.8889 53.5111C68.8889 65.0477 59.5366 74.4 48 74.4C36.4634 74.4 27.1111 65.0477 27.1111 53.5111H19.1111C19.1111 69.466 32.0451 82.4 48 82.4C63.9549 82.4 76.8889 69.466 76.8889 53.5111H68.8889ZM42.0444 54.7556C42.0444 51.4664 44.7108 48.8 48 48.8C51.2891 48.8 53.9555 51.4664 53.9555 54.7556C53.9555 58.0447 51.2891 60.7111 48 60.7111C44.7108 60.7111 42.0444 58.0447 42.0444 54.7556Z" fill="black"/>
</svg>
