<svg width="96" height="96" viewBox="0 0 96 96" fill="none" xmlns="http://www.w3.org/2000/svg">
<g clip-path="url(#clip0_102_433)">
<path fill-rule="evenodd" clip-rule="evenodd" d="M14.8269 12.1735C13.8706 16.5927 14.9684 20.9783 17.4795 24.3355C13.0372 29.3179 9.78298 35.4823 8.27042 42.4722C3.59811 64.0638 17.3139 85.355 38.9056 90.0273C60.4972 94.6996 81.7884 80.9838 86.4607 59.3921C87.9732 52.4023 87.5587 45.4439 85.5738 39.0707C89.2481 37.052 92.0609 33.5126 93.0172 29.0934C94.7693 20.9965 89.6258 13.0124 81.529 11.2602C75.9889 10.0614 70.5015 12.0908 67.0272 16.0857C63.6134 14.161 59.8567 12.7094 55.8255 11.837C51.7943 10.9647 47.7735 10.7333 43.8695 11.0745C42.3576 6.00062 38.2002 1.88412 32.6601 0.685276C24.5632 -1.06684 16.579 4.07659 14.8269 12.1735Z" fill="#FFF1D2"/>
<path fill-rule="evenodd" clip-rule="evenodd" d="M27.9973 41.6707C28.9837 37.1125 33.4785 34.2169 38.0367 35.2033C41.0755 35.8609 43.3753 38.0777 44.2787 40.833C38.8048 41.7461 34.1766 45.897 32.9314 51.6512C31.3013 59.1842 36.0866 66.6125 43.6196 68.2426C51.1527 69.8727 58.581 65.0874 60.2111 57.5543C60.7294 55.1591 60.5991 52.7744 59.9381 50.5833L72.3259 53.264L74.0179 45.445L52.481 40.7845C51.4151 34.3217 46.5194 28.8537 39.7287 27.3843C30.8521 25.4634 22.0991 31.1022 20.1783 39.9787L27.9973 41.6707ZM67.2508 57.8044C64.8108 69.0801 53.6921 76.2428 42.4165 73.8028C31.1408 71.3628 23.9781 60.2441 26.4181 48.9685L18.5991 47.2765C15.2246 62.8704 25.1305 78.2474 40.7245 81.6218C56.3184 84.9963 71.6954 75.0904 75.0698 59.4964L67.2508 57.8044ZM40.7504 53.3432C41.4461 50.1284 44.6161 48.0863 47.8308 48.7819C51.0456 49.4776 53.0877 52.6476 52.3921 55.8623C51.6964 59.0771 48.5264 61.1192 45.3116 60.4236C42.0969 59.7279 40.0548 56.5579 40.7504 53.3432Z" fill="black"/>
</g>
<defs>
<clipPath id="clip0_102_433">
<rect width="96" height="96" fill="white"/>
</clipPath>
</defs>
</svg>
